{
  "accessors": [
    {
      "bufferView": 1,
      "componentType": 5126,
      "count": 779,
      "max": [
        1.0289129018783569,
        3.5918817520141602,
        0.18162235617637634
      ],
      "min": [
        0,
        0,
        0
      ],
      "type": "VEC3"
    },
    {
      "bufferView": 1,
      "byteOffset": 9348,
      "componentType": 5126,
      "count": 779,
      "max": [
        1,
        1,
        0.99811071157455444
      ],
      "min": [
        -1,
        -1,
        -1
      ],
      "type": "VEC3"
    },
    {
      "bufferView": 2,
      "componentType": 5126,
      "count": 779,
      "max": [
        0.99984711408615112,
        0.99999994039535522,
        0.99996370077133179,
        1
      ],
      "min": [
        -0.99998009204864502,
        -0.99621427059173584,
        -0.99999070167541504,
        -1
      ],
      "type": "VEC4"
    },
    {
      "bufferView": 2,
      "byteOffset": 12464,
      "componentType": 5126,
      "count": 779,
      "max": [
        0.20784313976764679,
        0.20392157137393951,
        0.20392157137393951,
        1
      ],
      "min": [
        0.20392157137393951,
        0.13725490868091583,
        0.098039217293262482,
        1
      ],
      "type": "VEC4"
    },
    {
      "bufferView": 0,
      "componentType": 5125,
      "count": 2544,
      "max": [
        778
      ],
      "min": [
        0
      ],
      "type": "SCALAR"
    }
  ],
  "asset": {
    "extras": {
      "author": "Xillute | Dev (https://sketchfab.com/janchristian)",
      "license": "CC-BY-4.0 (http://creativecommons.org/licenses/by/4.0/)",
      "source": "https://sketchfab.com/models/533582de6ab74c78aabd67851248481c",
      "title": "Rail Long"
    },
    "generator": "Sketchfab-3.18.6",
    "version": "2.0"
  },
  "bufferViews": [
    {
      "buffer": 0,
      "byteLength": 10176,
      "byteOffset": 0,
      "name": "floatBufferViews",
      "target": 34963
    },
    {
      "buffer": 0,
      "byteLength": 18696,
      "byteOffset": 10176,
      "byteStride": 12,
      "name": "floatBufferViews",
      "target": 34962
    },
    {
      "buffer": 0,
      "byteLength": 24928,
      "byteOffset": 28872,
      "byteStride": 16,
      "name": "floatBufferViews",
      "target": 34962
    }
  ],
  "buffers": [
    {
      "byteLength": 53800,
      "uri": "scene.bin"
    }
  ],
  "materials": [
    {
      "doubleSided": true,
      "emissiveFactor": [
        0,
        0,
        0
      ],
      "name": "defaultMat",
      "pbrMetallicRoughness": {
        "baseColorFactor": [
          1,
          1,
          1,
          1
        ],
        "metallicFactor": 0.75,
        "roughnessFactor": 0.59999999999999998
      }
    }
  ],
  "meshes": [
    {
      "primitives": [
        {
          "attributes": {
            "COLOR_0": 3,
            "NORMAL": 1,
            "POSITION": 0,
            "TANGENT": 2
          },
          "indices": 4,
          "material": 0,
          "mode": 4
        }
      ]
    }
  ],
  "nodes": [
    {
      "children": [
        1
      ],
      "name": "RootNode (gltf orientation matrix)",
      "rotation": [
        -0.70710678118654746,
        -0,
        -0,
        0.70710678118654757
      ]
    },
    {
      "children": [
        2
      ],
      "name": "RootNode (model correction matrix)"
    },
    {
      "children": [
        3
      ],
      "matrix": [
        1,
        0,
        0,
        0,
        0,
        1,
        0,
        0,
        0,
        0,
        1,
        0,
        -0.51445645093917847,
        -1.7959408760070801,
        -0.036363288760185242,
        1
      ],
      "name": "48c5f38db61849ef8d18b8dfdac4ea67.obj.cleaner.gles"
    },
    {
      "children": [
        4
      ],
      "name": ""
    },
    {
      "mesh": 0,
      "name": ""
    }
  ],
  "scene": 0,
  "scenes": [
    {
      "name": "OSG_Scene",
      "nodes": [
        0
      ]
    }
  ]
}

